<svg id="Capa_1" enable-background="new 0 0 512 512" height="512" viewBox="0 0 512 512" width="512" xmlns="http://www.w3.org/2000/svg"><g><path d="m76 0h390v452h-390z" fill="#fdbf00"/><path d="m271 0h195v452h-195z" fill="#ff9f00"/><path d="m406 60v332l-120 120h-240v-452z" fill="#ede9e8"/><path d="m406 60v332l-120 120h-60v-452z" fill="#dfd7d5"/><g fill="#c4b3af"><path d="m406 443.211v-51.211h-120v120h51.211z"/><path d="m286 182h60v30h-60z"/><path d="m286 242h60v30h-60z"/><path d="m286 302h60v30h-60z"/></g><g><path d="m226 317v75h-150v-75c0-36.301 25.8-66.601 60-73.5l15 28.5 15-28.5c34.2 6.899 60 37.199 60 73.5z" fill="#ff6c6c"/><path d="m226 317v75h-75v-120l15-28.5c34.2 6.899 60 37.199 60 73.5z" fill="#ff193d"/><g><path d="m151 122c-32.999 0-60 27.001-60 60s27.001 60 60 60 60-27.001 60-60-27.001-60-60-60z" fill="#ff6c6c"/></g><path d="m151 242v-120c32.999 0 60 27.001 60 60s-27.001 60-60 60z" fill="#ff193d"/><path d="m166 243.5v88.5h-30v-88.5c4.799-.901 9.901-1.5 15-1.5s10.201.599 15 1.5z" fill="#68544f"/><path d="m166 243.5v88.5h-15v-90c5.099 0 10.201.599 15 1.5z" fill="#3e322e"/></g></g></svg>