<?xml version="1.0" encoding="iso-8859-1"?>
<!-- Generator: Adobe Illustrator 19.0.0, SVG Export Plug-In . SVG Version: 6.00 Build 0)  -->
<svg version="1.1" id="Capa_1" xmlns="http://www.w3.org/2000/svg" xmlns:xlink="http://www.w3.org/1999/xlink" x="0px" y="0px"
	 viewBox="0 0 335.015 335.015" style="enable-background:new 0 0 335.015 335.015;" xml:space="preserve">
<g>
	<g>
		<path d="M313.057,108.752l-79.48-18.4l-41.84-69.56l0.12,0.04c-2.404-4.181-5.847-7.67-9.996-10.129
			c-13.303-7.885-30.479-3.493-38.364,9.81l-42.16,69.88l-79.48,18.4c-4.539,1.021-8.752,3.157-12.259,6.214
			c-11.655,10.163-12.865,27.851-2.701,39.506l53.6,61.72l-7.08,81.44c-0.405,4.579,0.323,9.188,2.12,13.419
			c6.047,14.233,22.487,20.868,36.72,14.821l75.24-32l72.92,30.92c4.903,2.664,10.491,3.803,16.046,3.269
			c15.393-1.479,26.673-15.156,25.194-30.549l-7.08-81.44l52.64-60.64c3.555-3.706,6.021-8.319,7.131-13.333
			C337.688,127.041,328.156,112.093,313.057,108.752z"/>
	</g>
</g>
<g>
</g>
<g>
</g>
<g>
</g>
<g>
</g>
<g>
</g>
<g>
</g>
<g>
</g>
<g>
</g>
<g>
</g>
<g>
</g>
<g>
</g>
<g>
</g>
<g>
</g>
<g>
</g>
<g>
</g>
</svg>
